<svg width="24" height="24" viewBox="0 0 24 24" fill="none" xmlns="http://www.w3.org/2000/svg">
    <g clip-path="url(#clip0)">
        <path
            d="M20.4376 8.24951C20.0895 8.24951 19.7556 8.38779 19.5095 8.63393C19.2633 8.88007 19.1251 9.21391 19.1251 9.56201V15.562C19.1251 15.9101 19.2633 16.2439 19.5095 16.4901C19.7556 16.7362 20.0895 16.8745 20.4376 16.8745C20.7857 16.8745 21.1195 16.7362 21.3656 16.4901C21.6118 16.2439 21.7501 15.9101 21.7501 15.562V9.56201C21.7501 9.21391 21.6118 8.88007 21.3656 8.63393C21.1195 8.38779 20.7857 8.24951 20.4376 8.24951Z"
            fill="white" />
        <path
            d="M3.56247 8.24951C3.21437 8.24951 2.88053 8.38779 2.63439 8.63393C2.38825 8.88007 2.24997 9.21391 2.24997 9.56201V15.562C2.24997 15.9101 2.38825 16.2439 2.63439 16.4901C2.88053 16.7362 3.21437 16.8745 3.56247 16.8745C3.91057 16.8745 4.2444 16.7362 4.49055 16.4901C4.73669 16.2439 4.87497 15.9101 4.87497 15.562V9.56201C4.87497 9.21391 4.73669 8.88007 4.49055 8.63393C4.2444 8.38779 3.91057 8.24951 3.56247 8.24951Z"
            fill="white" />
        <path
            d="M5.81238 8.24951V17.2495C5.81238 17.6473 5.97041 18.0289 6.25172 18.3102C6.53302 18.5915 6.91455 18.7495 7.31238 18.7495H8.24988V21.937C8.24988 22.2851 8.38816 22.6189 8.6343 22.8651C8.88044 23.1112 9.21428 23.2495 9.56238 23.2495C9.91047 23.2495 10.2443 23.1112 10.4905 22.8651C10.7366 22.6189 10.8749 22.2851 10.8749 21.937V18.7495H13.1249V21.937C13.1249 22.2851 13.2632 22.6189 13.5093 22.8651C13.7554 23.1112 14.0893 23.2495 14.4374 23.2495C14.7855 23.2495 15.1193 23.1112 15.3654 22.8651C15.6116 22.6189 15.7499 22.2851 15.7499 21.937V18.7495H16.6874C17.0852 18.7495 17.4667 18.5915 17.748 18.3102C18.0293 18.0289 18.1874 17.6473 18.1874 17.2495V8.24951H5.81238Z"
            fill="white" />
        <path
            d="M18.0102 6.37378C17.6249 5.00081 16.7071 3.828 15.4687 3.05644C15.3993 3.01331 15.329 2.97144 15.2577 2.93081C15.1865 2.89019 15.1149 2.85034 15.0431 2.81128L15.2812 2.38565L16.026 1.04222C16.0386 1.01951 16.0466 0.994544 16.0496 0.968744C16.0525 0.942944 16.0503 0.916819 16.0431 0.891868C16.0359 0.866916 16.0239 0.843627 16.0077 0.823336C15.9915 0.803046 15.9714 0.786152 15.9487 0.773623C15.92 0.757541 15.8878 0.748993 15.8549 0.74878C15.8196 0.748719 15.785 0.758123 15.7546 0.776014C15.7241 0.793904 15.6991 0.819626 15.682 0.850498L14.9273 2.21222L14.6892 2.64112C14.6142 2.60784 14.5382 2.57644 14.4613 2.54737C14.3845 2.51831 14.3076 2.48784 14.2293 2.46019C12.7882 1.95309 11.2173 1.95309 9.77619 2.46019C9.69807 2.488 9.62072 2.51706 9.54416 2.54737C9.46728 2.57831 9.39135 2.60972 9.31635 2.64112L9.07822 2.21222L8.32354 0.852842C8.29743 0.808289 8.25493 0.775712 8.20512 0.762071C8.15532 0.74843 8.10215 0.754807 8.05698 0.779839C8.01181 0.804871 7.97823 0.846573 7.96339 0.896037C7.94856 0.945501 7.95366 0.998805 7.9776 1.04456L8.71869 2.38565L8.95682 2.81128C8.884 2.8494 8.81213 2.88862 8.74119 2.92894C8.67025 2.96925 8.60025 3.01175 8.53119 3.05644C7.29369 3.828 6.37494 5.00081 5.99057 6.37237C5.88428 6.73831 5.82567 7.11643 5.81619 7.49737H18.1846C18.175 7.1169 18.1164 6.73926 18.0102 6.37378ZM9.18744 5.62378C9.07619 5.62378 8.96744 5.59079 8.87493 5.52898C8.78243 5.46717 8.71033 5.37932 8.66776 5.27654C8.62518 5.17375 8.61405 5.06065 8.63575 4.95154C8.65745 4.84243 8.71103 4.7422 8.78969 4.66353C8.86836 4.58486 8.96859 4.53129 9.0777 4.50959C9.18682 4.48788 9.29992 4.49902 9.4027 4.5416C9.50548 4.58417 9.59333 4.65627 9.65514 4.74877C9.71695 4.84127 9.74994 4.95003 9.74994 5.06128C9.74994 5.21046 9.69068 5.35354 9.58519 5.45903C9.4797 5.56451 9.33662 5.62378 9.18744 5.62378ZM14.8124 5.62378C14.7012 5.62378 14.5924 5.59079 14.4999 5.52898C14.4074 5.46717 14.3353 5.37932 14.2928 5.27654C14.2502 5.17375 14.239 5.06065 14.2607 4.95154C14.2825 4.84243 14.336 4.7422 14.4147 4.66353C14.4934 4.58486 14.5936 4.53129 14.7027 4.50959C14.8118 4.48788 14.9249 4.49902 15.0277 4.5416C15.1305 4.58417 15.2183 4.65627 15.2801 4.74877C15.3419 4.84127 15.3749 4.95003 15.3749 5.06128C15.3749 5.21046 15.3157 5.35354 15.2102 5.45903C15.1047 5.56451 14.9616 5.62378 14.8124 5.62378Z"
            fill="white" />
    </g>
    <defs>
        <clipPath id="clip0">
            <rect width="24" height="24" fill="white" transform="translate(-6.10352e-05 -0.000488281)" />
        </clipPath>
    </defs>
</svg>