<svg width="24" height="24" viewBox="0 0 24 24" fill="none" xmlns="http://www.w3.org/2000/svg">
    <path
        d="M16.3653 6.4137C14.4753 6.4137 13.6765 7.31557 12.3603 7.31557C11.0107 7.31557 9.98137 6.42026 8.34355 6.42026C6.74043 6.42026 5.0309 7.39901 3.94528 9.06635C2.4209 11.4176 2.67965 15.8459 5.14856 19.6184C6.03168 20.9688 7.21105 22.4834 8.75793 22.4998H8.78605C10.1304 22.4998 10.5298 21.6195 12.38 21.6092H12.4081C14.2306 21.6092 14.5962 22.4946 15.935 22.4946H15.9631C17.51 22.4782 18.7526 20.8001 19.6357 19.4548C20.2714 18.4873 20.5076 18.0017 20.9951 16.9071C17.4237 15.5515 16.85 10.4885 20.382 8.54745C19.3039 7.19745 17.7889 6.41557 16.3606 6.41557L16.3653 6.4137Z"
        fill="white" />
    <path
        d="M15.9491 1.50098C14.8241 1.57738 13.5116 2.29363 12.7429 3.22879C12.0454 4.07629 11.4716 5.33347 11.6966 6.55269H11.7866C12.9847 6.55269 14.211 5.83129 14.9272 4.90691C15.6172 4.02707 16.1404 2.78019 15.9491 1.50098Z"
        fill="white" />
</svg>