<svg width="8" height="8" viewBox="0 0 8 8" fill="none" xmlns="http://www.w3.org/2000/svg">
    <path fill-rule="evenodd" clip-rule="evenodd"
        d="M1.60253 7.13672C1.41053 7.13672 1.21853 7.06372 1.07253 6.91672C0.779533 6.62372 0.779533 6.14972 1.07253 5.85672L5.86453 1.06472C6.15753 0.771721 6.63153 0.771721 6.92453 1.06472C7.21753 1.35772 7.21753 1.83172 6.92453 2.12472L2.13253 6.91672C1.98653 7.06372 1.79453 7.13672 1.60253 7.13672Z"
        fill="currentColor" />
    <path fill-rule="evenodd" clip-rule="evenodd"
        d="M6.39646 7.13965C6.20446 7.13965 6.01246 7.06665 5.86646 6.91965L1.07046 2.12265C0.777458 1.82965 0.777458 1.35565 1.07046 1.06265C1.36446 0.769645 1.83846 0.769645 2.13046 1.06265L6.92646 5.85965C7.21946 6.15265 7.21946 6.62665 6.92646 6.91965C6.78046 7.06665 6.58746 7.13965 6.39646 7.13965Z"
        fill="currentColor" />
</svg>