<svg width="24" height="24" viewBox="0 0 24 24" fill="none" xmlns="http://www.w3.org/2000/svg">
<g clip-path="url(#clip0)">
<path d="M11.9999 0.747559C6.62383 0.747559 2.24992 5.12146 2.24992 10.4976V17.7552L6.09367 19.2932L6.88492 23.2475H8.99992V20.2475H10.4999V23.2475H11.2499V20.2475H12.7499V23.2475H13.4999V20.2475H14.9999V23.2475H17.1149L17.9062 19.2932L21.7499 17.7552V10.4976C21.7499 5.12146 17.376 0.747559 11.9999 0.747559ZM7.87492 15.7476C7.35575 15.7476 6.84823 15.5936 6.41655 15.3052C5.98487 15.0167 5.64842 14.6068 5.44974 14.1271C5.25106 13.6474 5.19907 13.1196 5.30036 12.6104C5.40165 12.1012 5.65165 11.6335 6.01877 11.2664C6.38588 10.8993 6.85361 10.6493 7.36281 10.548C7.87201 10.4467 8.39981 10.4987 8.87946 10.6974C9.35912 10.896 9.76909 11.2325 10.0575 11.6642C10.346 12.0959 10.4999 12.6034 10.4999 13.1226C10.4992 13.8185 10.2224 14.4858 9.73025 14.9779C9.23813 15.47 8.57089 15.7468 7.87492 15.7476ZM10.2895 18.7476L11.4374 14.9976H12.5624L13.7104 18.7476H10.2895ZM16.1249 15.7476C15.6057 15.7476 15.0982 15.5936 14.6665 15.3052C14.2349 15.0167 13.8984 14.6068 13.6997 14.1271C13.5011 13.6474 13.4491 13.1196 13.5504 12.6104C13.6516 12.1012 13.9017 11.6335 14.2688 11.2664C14.6359 10.8993 15.1036 10.6493 15.6128 10.548C16.122 10.4467 16.6498 10.4987 17.1295 10.6974C17.6091 10.896 18.0191 11.2325 18.3075 11.6642C18.596 12.0959 18.7499 12.6034 18.7499 13.1226C18.7492 13.8185 18.4724 14.4858 17.9803 14.9779C17.4881 15.47 16.8209 15.7468 16.1249 15.7476Z" fill="white"/>
</g>
<defs>
<clipPath id="clip0">
<rect width="24" height="24" fill="white" transform="translate(-3.05176e-05 -0.000488281)"/>
</clipPath>
</defs>
</svg>
