<svg width="378" height="386" viewBox="0 0 378 386" fill="none" xmlns="http://www.w3.org/2000/svg">
<path d="M249.558 116.529C278.078 87.0012 311.199 105.347 324.194 118.212C331.96 134.767 338.145 172.12 300.767 189.096C305.383 178.983 311.235 154.386 297.717 136.896C285.769 118.299 260.632 115.569 249.558 116.529Z" fill="#151A21"/>
<rect x="249.764" y="131.623" width="60.4837" height="157.576" transform="rotate(54.79 249.764 131.623)" fill="#A4B8C3"/>
<path d="M191.792 129.912L149.079 122.034L82.2494 169.194C95.3194 170.292 124.978 177.434 139.051 197.226C149.618 168.865 168.537 146.837 191.792 129.912Z" fill="#A4B8C3"/>
<path fill-rule="evenodd" clip-rule="evenodd" d="M191.792 129.912C247.332 89.4903 327.607 78.1781 377.92 79.2308L377.92 79.2306C377.92 79.2307 377.92 79.2308 377.92 79.2308C377.92 79.2308 377.92 79.2308 377.921 79.2308L377.92 79.231C362.051 126.987 324.491 198.829 267.795 237.612C244.055 253.85 216.96 264.293 186.698 264.744C181.297 264.825 175.795 264.587 170.192 264.007C163.807 285.37 132.065 323.733 56.1748 306.282C65.1651 228.932 111.947 211.881 134.214 213.024C135.545 207.552 137.165 202.288 139.051 197.226C149.618 168.865 168.537 146.837 191.792 129.912ZM123.693 258.635C128.126 263.196 137.258 265.647 151.367 260.826C173.24 253.352 207.075 228.402 253.907 166.745C180.122 190.206 145.275 213.724 130.903 231.827C121.633 243.505 120.881 252.93 123.693 258.635ZM303.513 131.739C313.009 144.027 308.898 161.309 305.655 168.413C331.916 156.487 327.57 130.243 322.114 118.612C312.984 109.574 289.715 96.6848 269.677 117.43C277.458 116.756 295.118 118.674 303.513 131.739Z" fill="#DEE3EA"/>
<path d="M267.795 237.612L260.903 280.495L194.073 327.656C197.419 314.974 200.629 284.637 186.698 264.744C216.96 264.293 244.055 253.85 267.795 237.612Z" fill="#A4B8C3"/>
<path d="M170.744 264.097C164.359 285.46 131.316 324.23 55.4258 306.778L122.944 259.132C127.377 263.693 136.509 266.143 150.618 261.322C157.013 262.817 164.589 263.46 170.744 264.097Z" fill="url(#paint0_linear)"/>
<path d="M133.932 213.181C111.664 212.038 64.8822 229.089 55.892 306.439L123.41 258.792C120.599 253.087 121.35 243.662 130.621 231.984C131.355 225.458 132.469 219.194 133.932 213.181Z" fill="url(#paint1_linear)"/>
<path fill-rule="evenodd" clip-rule="evenodd" d="M103.008 272.961C102.852 272.82 102.695 272.676 102.538 272.532L102.769 272.369C89.4452 238.925 116.026 226.896 131.407 225.012L138.724 247.757L158.032 262.741C151.206 276.754 131.034 297.887 103.472 273.377L103.247 273.536C103.166 273.344 103.087 273.152 103.008 272.961Z" fill="#00FF47"/>
<defs>
<linearGradient id="paint0_linear" x1="164.975" y1="255.922" x2="67.8863" y2="324.436" gradientUnits="userSpaceOnUse">
<stop stop-color="#00FF47"/>
<stop offset="1" stop-color="#00C514"/>
</linearGradient>
<linearGradient id="paint1_linear" x1="139.533" y1="221.119" x2="43.5041" y2="288.885" gradientUnits="userSpaceOnUse">
<stop stop-color="#00FF47"/>
<stop offset="1" stop-color="#00C514"/>
</linearGradient>
</defs>
</svg>
