<?xml version="1.0" standalone="no"?>
<!DOCTYPE svg PUBLIC "-//W3C//DTD SVG 20010904//EN"
 "http://www.w3.org/TR/2001/REC-SVG-20010904/DTD/svg10.dtd">
<svg version="1.0" xmlns="http://www.w3.org/2000/svg"
 width="697.000000pt" height="697.000000pt" viewBox="0 0 697.000000 697.000000"
 preserveAspectRatio="xMidYMid meet">
<metadata>
Created by potrace 1.11, written by Peter Selinger 2001-2013
</metadata>
<g transform="translate(0.000000,697.000000) scale(0.100000,-0.100000)"
fill="#000000" stroke="none">
<path d="M3378 6055 c-2 -2 -34 -6 -73 -9 -38 -4 -77 -9 -85 -11 -8 -2 -35 -6
-60 -9 -268 -34 -660 -177 -905 -330 -69 -43 -196 -127 -212 -140 -179 -142
-319 -273 -420 -394 -27 -31 -52 -62 -58 -68 -10 -11 -16 -19 -92 -124 -107
-148 -235 -388 -298 -560 -15 -41 -31 -84 -36 -95 -28 -68 -81 -290 -104 -431
-30 -194 -38 -439 -19 -624 4 -41 8 -84 9 -95 16 -174 98 -475 188 -690 l26
-60 -57 -50 c-89 -78 -481 -471 -558 -560 -345 -396 -442 -611 -301 -670 66
-28 197 9 396 110 137 70 434 243 439 257 2 4 8 8 13 8 6 0 111 67 234 149
l223 150 134 -133 c73 -72 165 -158 204 -189 162 -130 404 -273 615 -366 203
-88 515 -166 754 -187 150 -14 548 -6 575 11 3 2 28 6 57 9 28 3 73 11 100 17
26 6 59 13 73 15 149 27 462 141 608 221 125 68 163 90 232 137 242 160 475
376 624 576 22 30 43 57 46 60 6 6 81 120 132 200 42 67 168 323 168 342 0 8
4 18 9 23 13 14 76 207 105 323 57 226 71 355 71 652 -1 186 -5 249 -24 365
-26 158 -55 280 -98 407 l-29 88 47 72 c123 193 253 454 339 685 22 58 40 108
40 111 0 5 -315 -6 -390 -13 -45 -5 -193 -23 -240 -31 -14 -2 -40 -5 -58 -8
-18 -3 -45 -7 -60 -11 -15 -3 -38 -7 -52 -10 -14 -3 -37 -7 -51 -10 -23 -5
-42 10 -160 127 -144 144 -176 172 -285 254 -382 284 -798 446 -1294 503 -67
8 -435 13 -442 6z m-2058 -3797 c33 -64 168 -274 192 -299 27 -28 50 -71 41
-79 -4 -4 -89 -61 -188 -128 -374 -249 -644 -406 -850 -492 -37 -16 -110 -35
-130 -35 -31 0 -29 29 5 97 29 57 124 200 153 230 7 7 32 38 56 68 23 30 73
89 109 130 108 122 561 570 577 570 1 0 18 -28 35 -62z"/>
</g>
</svg>
